<svg xmlns="http://www.w3.org/2000/svg" id="Layer_1" data-name="Layer 1" viewBox="0 0 800 204.24"><defs><style>      .cls-1 {        fill: #596861;      }      .cls-2 {        fill: #394a45;      }      .cls-3 {        fill: #373737;      }    </style></defs><rect class="cls-1" x="58.27" y="62.28" width="63.08" height="59.07"></rect><path class="cls-2" d="M121.35,121.35c-54.79-13.36-63.08-59.07-63.08-59.07L121.35,0v121.35Z"></path><rect class="cls-1" x="60.27" y="123.35" width="63.08" height="59.07" transform="translate(-61.07 244.7) rotate(-90)"></rect><path class="cls-2" d="M121.35,121.35c-13.36,54.79-59.07,63.08-59.07,63.08L0,121.35h121.35Z"></path><g><path class="cls-3" d="M219.43,67.92c0,18.13-12.87,32.88-31,32.88h-24.71V35.03h24.71c18.13,0,31,14.75,31,32.88ZM214.54,67.92c0-15.6-10.62-28.19-26.12-28.19h-19.73v56.37h19.73c15.5,0,26.12-12.59,26.12-28.18Z"></path><path class="cls-3" d="M277.19,53.82v46.97h-4.79v-10.61c-3.95,7.04-11.18,11.65-20.2,11.65-13.34,0-24.33-10.61-24.33-24.52s10.99-24.52,24.33-24.52c9.02,0,16.25,4.6,20.2,11.65v-10.61h4.79ZM272.4,77.31c0-11.18-8.64-20.01-19.82-20.01s-19.92,8.83-19.92,20.01,8.74,20.01,19.92,20.01,19.82-8.83,19.82-20.01Z"></path><path class="cls-3" d="M331.39,71.58v29.22h-4.79v-29.22c0-8.64-4.98-14.28-13.81-14.28s-16.44,6.01-16.44,18.7v24.8h-4.7v-46.97h4.7v8.93c3.57-6.95,9.58-9.96,16.82-9.96,11.18,0,18.23,7.42,18.23,18.79Z"></path><path class="cls-3" d="M376.29,88.49c0,7.71-6.77,13.34-16.82,13.34-9.4,0-15.6-4.41-17.85-10.43l4.04-2.35c1.69,5.07,6.76,8.27,13.81,8.27,6.58,0,12.12-2.91,12.12-8.83,0-12.77-28.47-5.45-28.47-22.36,0-7.42,6.39-13.34,15.97-13.34,7.61,0,13.43,3.66,15.97,9.39l-3.95,2.26c-1.97-4.89-6.86-7.14-12.03-7.14-6.11,0-11.27,3.2-11.27,8.83,0,12.59,28.47,5.16,28.47,22.36Z"></path><path class="cls-3" d="M416.77,100.8l-24.9-23.11v23.11h-4.7V35.03h4.7v40.12l23.77-21.33h6.57l-25.27,22.55,26.21,24.43h-6.39Z"></path><path class="cls-3" d="M201.58,179.71v4.7h-37.86v-65.77h37.39v4.7h-32.41v25.55h30.06v4.7h-30.06v26.11h32.88Z"></path><path class="cls-3" d="M252.58,155.19v29.22h-4.79v-29.22c0-8.65-4.98-14.28-13.81-14.28s-16.44,6.01-16.44,18.69v24.81h-4.7v-46.98h4.7v8.93c3.57-6.96,9.58-9.96,16.82-9.96,11.18,0,18.23,7.42,18.23,18.79Z"></path><path class="cls-3" d="M310.16,161.11c0,.75-.09,1.51-.09,2.26h-42.56c1.13,10.62,9.21,17.57,19.92,17.57,7.7,0,13.53-3.57,16.25-8.55l4.13,2.44c-3.85,6.39-11.18,10.62-20.48,10.62-14.47,0-24.71-10.34-24.71-24.53s9.96-24.52,24.33-24.52,23.21,11.83,23.21,24.71ZM267.51,158.76h37.77c-1.03-11.46-9.11-17.85-18.32-17.85-10.71,0-18.51,7.42-19.45,17.85Z"></path><path class="cls-3" d="M341.53,136.78v4.51c-8.08,0-15.69,4.98-15.69,17v26.12h-4.7v-46.98h4.7v9.21c3.19-7.42,9.3-9.87,15.69-9.87Z"></path><path class="cls-3" d="M394.6,137.43v44.72c0,14.09-10.43,22.08-23.39,22.08-10.99,0-18.79-4.42-22.17-11.28l4.13-2.35c2.44,4.98,7.7,9.11,18.04,9.11,11.74,0,18.7-6.86,18.7-17.57v-8.65c-3.85,7.23-11.09,11.93-20.2,11.93-13.44,0-24.33-10.62-24.33-24.53s10.9-24.52,24.33-24.52c9.11,0,16.35,4.69,20.2,11.93v-10.9h4.7ZM389.9,160.92c0-11.18-8.74-20.01-19.92-20.01s-19.92,8.83-19.92,20.01,8.74,20.01,19.92,20.01,19.92-8.83,19.92-20.01Z"></path><path class="cls-3" d="M407.65,122.31c0-1.97,1.69-3.67,3.76-3.67s3.76,1.7,3.76,3.67-1.69,3.75-3.76,3.75-3.76-1.69-3.76-3.75ZM409.06,137.43h4.7v46.98h-4.7v-46.98Z"></path><path class="cls-3" d="M436.39,134.9v2.54h14v4.6h-14v42.38h-4.79v-42.38h-8.08v-4.6h8.08v-2.54c0-11.55,6.48-18.23,18.79-17.28v4.51c-9.58-.75-14,3.66-14,12.77Z"></path><path class="cls-3" d="M451.33,160.92c0-13.9,10.99-24.52,24.71-24.52s24.61,10.62,24.61,24.52-10.99,24.53-24.61,24.53-24.71-10.62-24.71-24.53ZM495.86,160.92c0-11.18-8.65-20.01-19.82-20.01s-19.92,8.83-19.92,20.01,8.74,20.01,19.92,20.01,19.82-8.83,19.82-20.01Z"></path><path class="cls-3" d="M532.3,136.78v4.51c-8.08,0-15.69,4.98-15.69,17v26.12h-4.7v-46.98h4.7v9.21c3.19-7.42,9.3-9.87,15.69-9.87Z"></path><path class="cls-3" d="M571.56,172.1c0,7.71-6.77,13.34-16.82,13.34-9.4,0-15.6-4.42-17.85-10.43l4.04-2.35c1.69,5.07,6.77,8.26,13.81,8.26,6.58,0,12.12-2.91,12.12-8.83,0-12.77-28.47-5.45-28.47-22.36,0-7.42,6.39-13.34,15.97-13.34,7.61,0,13.43,3.66,15.97,9.4l-3.94,2.26c-1.97-4.89-6.86-7.14-12.03-7.14-6.11,0-11.28,3.2-11.28,8.83,0,12.59,28.47,5.17,28.47,22.36Z"></path><path class="cls-3" d="M620.03,137.43l-20.29,51.3c-3.57,9.02-10.52,15.13-18.6,14.47v-4.42c6.3.57,11.09-4.14,14-10.99l1.04-2.54-21.61-47.82h5.07l18.98,41.81,16.34-41.81h5.08Z"></path><path class="cls-3" d="M668.22,155.19v29.22h-4.79v-29.22c0-8.65-4.98-14.28-13.81-14.28s-16.44,6.01-16.44,18.69v24.81h-4.7v-46.98h4.7v8.93c3.57-6.96,9.58-9.96,16.82-9.96,11.18,0,18.23,7.42,18.23,18.79Z"></path><path class="cls-3" d="M680.04,122.31c0-1.97,1.69-3.67,3.76-3.67s3.76,1.7,3.76,3.67-1.69,3.75-3.76,3.75-3.76-1.69-3.76-3.75ZM681.45,137.43h4.7v46.98h-4.7v-46.98Z"></path><path class="cls-3" d="M740.35,155.19v29.22h-4.79v-29.22c0-8.65-4.98-14.28-13.81-14.28s-16.44,6.01-16.44,18.69v24.81h-4.7v-46.98h4.7v8.93c3.57-6.96,9.58-9.96,16.81-9.96,11.18,0,18.23,7.42,18.23,18.79Z"></path><path class="cls-3" d="M800,137.43v44.72c0,14.09-10.43,22.08-23.39,22.08-10.99,0-18.79-4.42-22.17-11.28l4.14-2.35c2.44,4.98,7.7,9.11,18.04,9.11,11.74,0,18.7-6.86,18.7-17.57v-8.65c-3.85,7.23-11.09,11.93-20.2,11.93-13.44,0-24.33-10.62-24.33-24.53s10.9-24.52,24.33-24.52c9.11,0,16.34,4.69,20.2,11.93v-10.9h4.7ZM795.3,160.92c0-11.18-8.74-20.01-19.92-20.01s-19.91,8.83-19.91,20.01,8.74,20.01,19.91,20.01,19.92-8.83,19.92-20.01Z"></path></g></svg>