<svg width="207" height="61" viewBox="0 0 207 61" fill="none" xmlns="http://www.w3.org/2000/svg">
<path d="M2.50879 20.416C2.50879 19.3168 2.83039 18.4478 3.47362 17.8087C4.11685 17.1696 4.99161 16.8501 6.09796 16.8501H18.8337C19.0139 17.1313 19.1683 17.5019 19.2968 17.962C19.4512 18.4222 19.5284 18.9079 19.5284 19.4191C19.5284 20.3904 19.3096 21.0805 18.8723 21.4896C18.4606 21.8986 17.9075 22.1031 17.2128 22.1031H9.06964V25.669H17.7531C17.9333 25.9501 18.0876 26.3208 18.2162 26.7809C18.3706 27.2154 18.4478 27.6884 18.4478 28.1996C18.4478 29.1709 18.242 29.861 17.8303 30.2701C17.4186 30.6791 16.8655 30.8836 16.1708 30.8836H9.06964V34.9096H18.9881C19.1683 35.1907 19.3226 35.5614 19.4512 36.0215C19.6056 36.4816 19.6828 36.9674 19.6828 37.4786C19.6828 38.4498 19.464 39.1529 19.0267 39.5874C18.615 39.9965 18.0619 40.2009 17.3672 40.2009H6.09796C4.99161 40.2009 4.11685 39.8814 3.47362 39.2423C2.83039 38.6032 2.50879 37.7342 2.50879 36.635V20.416ZM22.2682 28.4296C22.2682 26.4358 22.5769 24.672 23.1944 23.1383C23.8377 21.6046 24.6995 20.3266 25.7801 19.304C26.8865 18.2561 28.1729 17.4636 29.6395 16.9268C31.1318 16.39 32.7399 16.1216 34.4636 16.1216C36.1875 16.1216 37.7826 16.39 39.2492 16.9268C40.7415 17.4636 42.0409 18.2561 43.1471 19.304C44.2535 20.3266 45.1154 21.6046 45.7328 23.1383C46.3761 24.672 46.6977 26.4358 46.6977 28.4296C46.6977 30.4235 46.3889 32.2 45.7714 33.7593C45.1539 35.293 44.2921 36.5839 43.1857 37.6319C42.1051 38.6545 40.8187 39.434 39.3264 39.9708C37.8342 40.5076 36.2133 40.776 34.4636 40.776C32.7141 40.776 31.0932 40.5076 29.6009 39.9708C28.1087 39.4084 26.8222 38.6032 25.7416 37.5552C24.6609 36.5073 23.8119 35.2163 23.1944 33.6826C22.5769 32.1489 22.2682 30.3978 22.2682 28.4296ZM29.2149 28.4296C29.2149 30.7558 29.691 32.494 30.6429 33.6443C31.5949 34.7946 32.8685 35.3697 34.4636 35.3697C36.0845 35.3697 37.3711 34.7946 38.3229 33.6443C39.275 32.494 39.7509 30.7558 39.7509 28.4296C39.7509 26.1291 39.275 24.4036 38.3229 23.2534C37.3967 22.1031 36.1231 21.5279 34.5022 21.5279C32.9071 21.5279 31.6207 22.1031 30.6429 23.2534C29.691 24.378 29.2149 26.1034 29.2149 28.4296ZM57.2 30.8452C56.0678 30.4618 55.0387 30.0784 54.1125 29.695C53.1862 29.2859 52.3886 28.8003 51.7197 28.2379C51.0506 27.6755 50.5233 27.011 50.1374 26.2441C49.7771 25.4516 49.5971 24.493 49.5971 23.3684C49.5971 21.1956 50.4332 19.4574 52.1056 18.1538C53.8037 16.8501 56.1707 16.1983 59.2068 16.1983C60.313 16.1983 61.3422 16.275 62.2943 16.4283C63.2461 16.5817 64.0566 16.8245 64.7256 17.1568C65.4203 17.4636 65.9606 17.8726 66.3465 18.3838C66.7325 18.8695 66.9254 19.4447 66.9254 20.1092C66.9254 20.7738 66.7711 21.3489 66.4623 21.8347C66.1536 22.2948 65.7804 22.6909 65.3431 23.0233C64.777 22.6655 64.018 22.3587 63.0661 22.1031C62.1141 21.8219 61.0721 21.6813 59.9401 21.6813C58.7823 21.6813 57.9332 21.8474 57.3929 22.1798C56.8526 22.4865 56.5825 22.8826 56.5825 23.3684C56.5825 23.7518 56.7496 24.0713 57.0842 24.327C57.4185 24.557 57.9202 24.7743 58.5893 24.9788L60.6347 25.6306C63.0531 26.3975 64.9056 27.3817 66.1922 28.583C67.5043 29.7589 68.1604 31.3693 68.1604 33.4142C68.1604 35.587 67.2984 37.3508 65.5747 38.7055C63.8508 40.0348 61.3164 40.6994 57.9718 40.6994C56.7882 40.6994 55.6818 40.597 54.6528 40.3926C53.6494 40.2136 52.7617 39.9452 51.9899 39.5874C51.2436 39.204 50.6519 38.7439 50.2146 38.2071C49.8029 37.6446 49.5971 37.0057 49.5971 36.2899C49.5971 35.5487 49.8157 34.9223 50.2532 34.4111C50.6905 33.8743 51.1664 33.4653 51.6811 33.1842C52.4014 33.7466 53.2762 34.2321 54.3055 34.6412C55.3603 35.0502 56.5053 35.2547 57.7403 35.2547C59.0008 35.2547 59.8885 35.063 60.4032 34.6795C60.9177 34.2961 61.175 33.8487 61.175 33.3375C61.175 32.8263 60.9691 32.4429 60.5576 32.1872C60.1458 31.9061 59.5669 31.6377 58.8209 31.382L57.2 30.8452ZM85.2623 39.319C84.9022 39.6258 84.3361 39.8942 83.5642 40.1242C82.8181 40.3543 81.9947 40.4693 81.0942 40.4693C80.0136 40.4693 79.0874 40.3159 78.3155 40.0092C77.5437 39.6768 77.0162 39.2296 76.7332 38.6672C76.4502 38.0793 76.1029 37.3252 75.6912 36.405C75.2795 35.4591 74.8421 34.4111 74.379 33.2608C73.9417 32.1106 73.4786 30.8963 72.9897 29.6183C72.5265 28.3146 72.0762 26.9982 71.6389 25.669C71.2016 24.3397 70.7898 23.036 70.4039 21.758C70.018 20.4799 69.6834 19.2784 69.4005 18.1538C69.7606 17.7959 70.2753 17.4763 70.9442 17.1952C71.6389 16.8884 72.3722 16.7351 73.144 16.7351C74.0961 16.7351 74.8679 16.9396 75.4596 17.3486C76.0771 17.732 76.5274 18.4605 76.8104 19.5341C77.5051 22.0391 78.1997 24.442 78.8944 26.7426C79.6149 29.0175 80.361 31.3948 81.1328 33.8743H81.3644C82.0591 31.4714 82.7665 28.8514 83.487 26.014C84.2331 23.1767 84.9408 20.352 85.6096 17.5403C86.0728 17.3102 86.5617 17.1185 87.0762 16.9651C87.6165 16.8118 88.2212 16.7351 88.8901 16.7351C89.8421 16.7351 90.6525 16.9523 91.3214 17.3869C91.9903 17.7959 92.3249 18.4861 92.3249 19.4574C92.3249 20.0198 92.1833 20.8378 91.9003 21.9114C91.643 22.985 91.2957 24.1992 90.8583 25.5539C90.4466 26.8832 89.9707 28.2763 89.4304 29.7333C88.9159 31.1903 88.3884 32.5707 87.8481 33.8743C87.3335 35.1524 86.8446 36.2899 86.3815 37.2868C85.9184 38.2581 85.5453 38.9356 85.2623 39.319ZM94.2914 28.4296C94.2914 26.4358 94.6001 24.672 95.2176 23.1383C95.8607 21.6046 96.7227 20.3266 97.8033 19.304C98.9096 18.2561 100.196 17.4636 101.663 16.9268C103.155 16.39 104.763 16.1216 106.487 16.1216C108.211 16.1216 109.806 16.39 111.272 16.9268C112.765 17.4636 114.064 18.2561 115.17 19.304C116.277 20.3266 117.139 21.6046 117.756 23.1383C118.399 24.672 118.721 26.4358 118.721 28.4296C118.721 30.4235 118.412 32.2 117.795 33.7593C117.177 35.293 116.315 36.5839 115.209 37.6319C114.128 38.6545 112.842 39.434 111.35 39.9708C109.857 40.5076 108.236 40.776 106.487 40.776C104.737 40.776 103.116 40.5076 101.624 39.9708C100.132 39.4084 98.8454 38.6032 97.7648 37.5552C96.6841 36.5073 95.8351 35.2163 95.2176 33.6826C94.6001 32.1489 94.2914 30.3978 94.2914 28.4296ZM101.238 28.4296C101.238 30.7558 101.714 32.494 102.666 33.6443C103.618 34.7946 104.892 35.3697 106.487 35.3697C108.108 35.3697 109.394 34.7946 110.346 33.6443C111.298 32.494 111.774 30.7558 111.774 28.4296C111.774 26.1291 111.298 24.4036 110.346 23.2534C109.42 22.1031 108.146 21.5279 106.525 21.5279C104.93 21.5279 103.644 22.1031 102.666 23.2534C101.714 24.378 101.238 26.1034 101.238 28.4296ZM126.174 40.2009C125.068 40.2009 124.193 39.8814 123.55 39.2423C122.907 38.6032 122.585 37.7342 122.585 36.635V16.8118C122.868 16.7606 123.318 16.6967 123.936 16.62C124.553 16.5178 125.145 16.4667 125.711 16.4667C126.303 16.4667 126.817 16.5178 127.255 16.62C127.718 16.6967 128.104 16.8501 128.413 17.0802C128.721 17.3102 128.953 17.6297 129.107 18.0387C129.262 18.4478 129.339 18.9846 129.339 19.6491V34.7946H138.177C138.357 35.0757 138.524 35.4591 138.678 35.9448C138.833 36.405 138.91 36.8907 138.91 37.4019C138.91 38.4244 138.691 39.1529 138.254 39.5874C137.816 39.9965 137.238 40.2009 136.517 40.2009H126.174ZM138.992 22.2181C138.812 21.937 138.645 21.5535 138.49 21.0678C138.336 20.5821 138.259 20.0709 138.259 19.5341C138.259 18.5372 138.477 17.8214 138.915 17.3869C139.378 16.9523 139.97 16.7351 140.69 16.7351H157.517C157.697 17.0162 157.864 17.3997 158.018 17.8854C158.173 18.3711 158.25 18.8823 158.25 19.4191C158.25 20.416 158.018 21.1318 157.555 21.5663C157.118 22.0008 156.539 22.2181 155.819 22.2181H151.535V39.9325C151.252 40.0092 150.801 40.0859 150.184 40.1626C149.592 40.2392 149 40.2776 148.409 40.2776C147.817 40.2776 147.29 40.2265 146.826 40.1242C146.389 40.0475 146.016 39.8942 145.707 39.6641C145.398 39.434 145.167 39.1146 145.013 38.7055C144.858 38.2965 144.781 37.7597 144.781 37.0951V22.2181H138.992Z" fill="#210062"/>
<path fill-rule="evenodd" clip-rule="evenodd" d="M204.441 25.2178C205.505 25.2178 206.367 26.0746 206.367 27.1315V30.4805C206.367 31.5375 205.505 32.3943 204.441 32.3943C203.377 32.3943 202.515 31.5375 202.515 30.4805V27.1315C202.515 26.0746 203.377 25.2178 204.441 25.2178Z" fill="#210062"/>
<path fill-rule="evenodd" clip-rule="evenodd" d="M170.732 20.6727C170.349 20.6727 169.981 20.8239 169.71 21.0931C169.439 21.3622 169.287 21.7273 169.287 22.108V35.5041C169.287 35.8848 169.439 36.2499 169.71 36.5191C169.981 36.7882 170.349 36.9394 170.732 36.9394H174.103C175.166 36.9394 176.029 37.7963 176.029 38.8532C176.029 39.9101 175.166 40.7669 174.103 40.7669H170.732C169.327 40.7669 167.979 40.2125 166.986 39.2255C165.993 38.2385 165.435 36.8999 165.435 35.5041V22.108C165.435 20.7122 165.993 19.3736 166.986 18.3866C167.979 17.3997 169.327 16.8452 170.732 16.8452H176.108C177.172 16.8452 178.035 17.702 178.035 18.759C178.035 19.8159 177.172 20.6727 176.108 20.6727H170.732ZM189.031 18.759C189.031 17.702 189.893 16.8452 190.957 16.8452H194.328C195.733 16.8452 197.08 17.3997 198.074 18.3866C199.067 19.3736 199.625 20.7122 199.625 22.108V35.5041C199.625 36.8999 199.067 38.2385 198.074 39.2255C197.08 40.2125 195.733 40.7669 194.328 40.7669H188.951C187.888 40.7669 187.025 39.9101 187.025 38.8532C187.025 37.7963 187.888 36.9394 188.951 36.9394H194.328C194.711 36.9394 195.079 36.7882 195.35 36.5191C195.621 36.2499 195.773 35.8848 195.773 35.5041V22.108C195.773 21.7273 195.621 21.3622 195.35 21.0931C195.079 20.8239 194.711 20.6727 194.328 20.6727H190.957C189.893 20.6727 189.031 19.8159 189.031 18.759Z" fill="#210062"/>
<path fill-rule="evenodd" clip-rule="evenodd" d="M185.284 17.1668C186.17 17.7531 186.409 18.9413 185.819 19.8207L181.073 26.8925H187.587C188.297 26.8925 188.95 27.281 189.285 27.9033C189.62 28.5255 189.584 29.2806 189.19 29.8678L182.448 39.9149C181.858 40.7944 180.662 41.032 179.777 40.4457C178.891 39.8594 178.652 38.6713 179.242 37.7918L183.988 30.72H177.474C176.764 30.72 176.111 30.3315 175.776 29.7093C175.441 29.087 175.477 28.332 175.871 27.7447L182.613 17.6976C183.203 16.8182 184.399 16.5806 185.284 17.1668Z" fill="#210062"/>
</svg>
