<?xml version="1.0" encoding="UTF-8"?>
<svg version="1.1" xmlns="http://www.w3.org/2000/svg" width="718" height="519">
<path d="M0 0 C1.07519897 -0.01022186 2.15039795 -0.02044373 3.25817871 -0.03097534 C6.81630651 -0.05880107 10.37366103 -0.05685168 13.93188477 -0.05224609 C16.40284006 -0.06001798 18.87379268 -0.0686869 21.34474182 -0.07821655 C26.52565164 -0.09314806 31.7062889 -0.09255336 36.88720703 -0.08203125 C43.53009579 -0.07043879 50.17186985 -0.10430598 56.81457424 -0.1507206 C61.91810134 -0.18016871 67.02135913 -0.18194246 72.12495613 -0.17570114 C74.57421134 -0.17672886 77.02348137 -0.18722868 79.47265434 -0.20732498 C82.89657126 -0.23197126 86.31830614 -0.21852515 89.7421875 -0.1953125 C90.75585892 -0.21059998 91.76953033 -0.22588745 92.81391907 -0.24163818 C99.47398925 -0.14171812 99.47398925 -0.14171812 102.18299294 1.80464458 C104.62781476 4.56322905 105.44654533 6.61360903 106.05493164 10.25073242 C105.67041561 15.78863119 103.01805964 20.46297509 100.52954102 25.32666016 C100.0182515 26.35738144 99.50696198 27.38810272 98.98017883 28.45005798 C97.31310388 31.8030425 95.62447699 35.14467191 93.93579102 38.48681641 C92.77354052 40.81621616 91.61298771 43.14646371 90.45410156 45.47753906 C88.15925407 50.090766 85.85771506 54.70054542 83.55053711 59.30761719 C80.02613003 66.35576808 76.5748457 73.43747236 73.15682983 80.53768921 C71.6113353 83.74698745 70.058814 86.95287957 68.50610352 90.15869141 C68.19011703 90.81125412 67.87413055 91.46381683 67.54856873 92.13615417 C62.93240845 101.66134333 58.27503084 111.16646996 53.62329102 120.67431641 C46.6542844 134.91913372 39.69155087 149.16692935 32.74829102 163.42431641 C32.36167297 164.21817749 31.97505493 165.01203857 31.57672119 165.82995605 C29.6369558 169.81312993 27.69743204 173.79642139 25.75805664 177.77978516 C21.83930531 185.82853237 17.91884784 193.87644853 13.99829102 201.92431641 C13.41248764 203.12686066 13.41248764 203.12686066 12.81484985 204.35369873 C6.27326208 217.78204656 -0.27444829 231.20740177 -6.82418823 244.6317749 C-12.90843236 257.10222686 -18.98822036 269.57484015 -25.06420898 282.04931641 C-31.53930216 295.34297167 -38.01837727 308.63467705 -44.50170898 321.92431641 C-45.12261917 323.19707428 -45.12261917 323.19707428 -45.756073 324.49554443 C-49.11206541 331.37463938 -52.46831988 338.25360645 -55.82458496 345.13256836 C-58.75874879 351.14642462 -61.69280885 357.16033149 -64.62670898 363.17431641 C-65.04072968 364.02298279 -65.45475037 364.87164917 -65.88131714 365.74603271 C-71.94628938 378.17850937 -78.00675782 390.61317372 -84.06420898 403.04931641 C-91.36416312 418.03635778 -98.66759112 433.02170083 -105.98046875 448.00244141 C-109.89420304 456.02065511 -113.80465648 464.04041354 -117.70310974 472.06607056 C-119.52852658 475.82356976 -121.35576733 479.58018067 -123.18313599 483.33673096 C-124.05113094 485.12238142 -124.9182404 486.90846263 -125.78439331 488.69500732 C-126.98866836 491.17880803 -128.19604966 493.66107717 -129.40405273 496.14306641 C-129.75218018 496.86317902 -130.10030762 497.58329163 -130.45898438 498.32522583 C-131.47571928 500.4098186 -132.51210029 502.48235614 -133.56420898 504.54931641 C-133.97003204 505.34700439 -134.3758551 506.14469238 -134.79397583 506.96655273 C-135.42769608 508.16477661 -135.42769608 508.16477661 -136.07421875 509.38720703 C-136.45433609 510.11186157 -136.83445343 510.83651611 -137.22608948 511.58312988 C-138.79454506 513.88776427 -140.20364604 515.06371794 -142.56420898 516.54931641 C-144.90090084 516.92963314 -144.90090084 516.92963314 -147.52928162 516.93699646 C-149.0286174 516.95185341 -149.0286174 516.95185341 -150.5582428 516.9670105 C-151.64874435 516.96250885 -152.73924591 516.9580072 -153.86279297 516.95336914 C-155.01602051 516.96023239 -156.16924805 516.96709564 -157.35742188 516.97416687 C-161.17517355 516.99249043 -164.99251646 516.98858927 -168.81030273 516.98291016 C-170.79091349 516.98631723 -172.77152445 516.9897316 -174.75213295 516.99426323 C-180.97933175 517.00830797 -187.20639336 517.00674785 -193.43359375 516.99536133 C-199.85369214 516.98388136 -206.27337273 516.99795339 -212.69341606 517.0247578 C-218.20948266 517.04692406 -223.72541821 517.05355011 -229.24152619 517.04768139 C-232.53430344 517.04431258 -235.82675368 517.04843011 -239.11950493 517.06393242 C-242.7920642 517.07878587 -246.46370036 517.06820545 -250.13623047 517.05102539 C-251.22470779 517.06069336 -252.31318512 517.07036133 -253.43464661 517.08032227 C-260.79605992 517.00810079 -260.79605992 517.00810079 -264.66783142 514.69564819 C-266.96994873 512.09009767 -268.41990211 509.53091826 -269.94702148 506.40478516 C-270.24679901 505.79911209 -270.54657654 505.19343903 -270.85543823 504.56941223 C-271.81147758 502.63059042 -272.75045297 500.68405488 -273.68920898 498.73681641 C-274.29489424 497.50386065 -274.9016593 496.27143474 -275.50952148 495.03955078 C-279.84338135 486.22472467 -284.05036224 477.34832898 -288.2817688 468.48405457 C-292.84078755 458.94628069 -297.48022513 449.44876726 -302.13690186 439.95837402 C-304.63854142 434.85967208 -307.1362698 429.75905395 -309.63452148 424.65869141 C-310.13670197 423.63366516 -310.63888245 422.60863892 -311.15628052 421.55255127 C-316.7024433 410.22999445 -322.23486603 398.90069978 -327.74145508 387.55883789 C-331.22002695 380.39651134 -334.70937835 373.24061761 -338.25424194 366.11080933 C-339.85774153 362.88327233 -341.45262618 359.6515162 -343.04669189 356.41931152 C-343.7977386 354.90245316 -344.55295232 353.38764961 -345.31268311 351.87512207 C-346.35780608 349.79379625 -347.3881763 347.70574487 -348.41577148 345.61572266 C-349.00181152 344.43953369 -349.58785156 343.26334473 -350.19165039 342.05151367 C-352.0969104 337.19008449 -353.21319717 332.90729325 -351.78588867 327.72143555 C-351.35695313 326.85123779 -350.92801758 325.98104004 -350.48608398 325.08447266 C-349.74853882 323.54557373 -349.74853882 323.54557373 -348.99609375 321.97558594 C-348.16356079 320.31052002 -348.16356079 320.31052002 -347.31420898 318.61181641 C-346.72986225 317.40570224 -346.14782251 316.19846815 -345.56787109 314.99023438 C-344.62023959 313.01750365 -343.67075691 311.04582259 -342.71421814 309.07739258 C-338.81137345 301.0435705 -335.08564363 292.92849872 -331.34637451 284.81762695 C-329.31939985 280.42468203 -327.28349141 276.03588462 -325.24780273 271.64697266 C-324.85115417 270.79156891 -324.45450562 269.93616516 -324.0458374 269.05484009 C-320.56079741 261.5398132 -317.07383985 254.02568561 -313.57614136 246.51654053 C-312.72174506 244.68168897 -311.86865901 242.84622748 -311.015625 241.01074219 C-301.1751054 219.90837969 -301.1751054 219.90837969 -296.56420898 217.54931641 C-293.73745793 216.95633197 -291.34068045 216.70270295 -288.56420898 217.54931641 C-284.43044724 221.14804126 -282.03345018 224.98993504 -279.73999023 229.88916016 C-279.04584535 231.32406444 -278.35133726 232.75879307 -277.65649414 234.19335938 C-277.30878967 234.91980652 -276.96108521 235.64625366 -276.60284424 236.39471436 C-275.00044863 239.71881188 -273.33393809 243.00979606 -271.66967773 246.30322266 C-271.01626281 247.60444406 -270.36326998 248.9058775 -269.71069336 250.20751953 C-268.73843181 252.14599773 -267.76561888 254.08418386 -266.79052734 256.02124023 C-262.04526021 265.45039772 -257.44824848 274.9439398 -252.90779114 284.4733429 C-248.02134724 294.71559384 -243.02478509 304.90280489 -238.01837158 315.08682251 C-235.29657617 320.62377681 -232.57867368 326.1626407 -229.86108398 331.70166016 C-229.32367584 332.79693527 -228.7862677 333.89221039 -228.23257446 335.02067566 C-222.65794919 346.38773735 -217.12320863 357.77401709 -211.6027832 369.16748047 C-211.27888611 369.83577377 -210.95498901 370.50406708 -210.62127686 371.19261169 C-209.76989397 372.9497028 -208.91921573 374.70713529 -208.06860352 376.46459961 C-206.58680869 379.50297638 -205.07802432 382.5267952 -203.56420898 385.54931641 C-203.11054459 384.61169464 -202.65688019 383.67407288 -202.18946838 382.70803833 C-191.4524583 360.53585596 -180.55767772 338.44501941 -169.52905273 316.41650391 C-169.22522439 315.80955594 -168.92139604 315.20260798 -168.60836077 314.57726765 C-163.90967904 305.19117815 -159.20612729 295.80753162 -154.50170898 286.42431641 C-150.37287278 278.18899569 -146.24481272 269.9532894 -142.12065417 261.71562493 C-140.07876006 257.63744811 -138.03373442 253.56085181 -135.98802185 249.48458862 C-130.94013211 239.41192447 -125.94601575 229.32046818 -121.11132812 219.14355469 C-115.21093576 206.72543927 -109.0637707 194.43473512 -102.89730644 182.14704895 C-101.30586667 178.97440708 -99.7172008 175.80037676 -98.1282959 172.62646484 C-93.77030422 163.92234831 -89.40823438 155.22027734 -85.04607391 146.51824951 C-81.03724447 138.52096916 -77.02936242 130.52321735 -73.02475309 122.52382278 C-71.45695839 119.39232215 -69.88834873 116.26123623 -68.31758118 113.13122559 C-61.4169872 99.37805421 -54.62386899 85.58443262 -48.01571655 71.68832397 C-44.6982977 64.71720575 -41.2867074 57.79394273 -37.84936523 50.88134766 C-37.5224362 50.22341406 -37.19550716 49.56548046 -36.85867119 48.88760948 C-35.14448673 45.43885879 -33.42796275 41.99128481 -31.70947266 38.54467773 C-30.30381534 35.72435248 -28.90310304 32.90164855 -27.50634766 30.0769043 C-25.78902665 26.60387164 -24.06391845 23.1348169 -22.33303642 19.66852379 C-21.68328176 18.36417022 -21.03621043 17.05847612 -20.39198494 15.75138283 C-19.49869228 13.94045538 -18.59430587 12.13501307 -17.68945312 10.32983398 C-17.18080215 9.3066658 -16.67215118 8.28349762 -16.14808655 7.22932434 C-11.81048876 -0.11012964 -8.09081724 -0.03946916 0 0 Z " fill="#328957" transform="translate(597.564208984375,-0.54931640625)"/>
<path d="M0 0 C1.16312714 -0.0071553 2.32625427 -0.01431061 3.52462769 -0.02168274 C7.36968245 -0.03859243 11.21357512 -0.01915182 15.05859375 0.00219727 C17.72991495 0.00136878 20.40119572 -0.00103437 23.07250977 -0.00511169 C28.67119732 -0.00962972 34.26955047 0.00621863 39.86816406 0.03417969 C46.33545953 0.06623071 52.80215196 0.06621518 59.26949024 0.04896492 C65.49792331 0.0330857 71.72613587 0.03984221 77.95455933 0.05690193 C80.6019542 0.06208845 83.24936643 0.06159629 85.89675903 0.05535698 C89.59561628 0.04991222 93.29344715 0.07025877 96.9921875 0.09765625 C98.63657303 0.08786743 98.63657303 0.08786743 100.31417847 0.07788086 C107.69843099 0.17097144 107.69843099 0.17097144 111.56451416 2.40112305 C113.39309815 4.5121966 114.69901719 6.33391791 115.90527344 8.84423828 C116.3111821 9.67334213 116.71709076 10.50244598 117.13529968 11.35667419 C117.55858047 12.25289993 117.98186127 13.14912567 118.41796875 14.07250977 C118.87496658 15.01445694 119.33196442 15.95640411 119.80281067 16.92689514 C121.29549576 20.01035322 122.77072343 23.1018285 124.24609375 26.19360352 C125.2851877 28.34766067 126.32548209 30.50113915 127.36694336 32.65405273 C129.45458858 36.97394777 131.53576913 41.29685364 133.61083984 45.62280273 C137.06966748 52.83177999 140.56462634 60.0229353 144.06433105 67.21212769 C145.06810009 69.27564638 146.07000772 71.34005832 147.07128906 73.40478516 C153.3198387 86.28895199 159.61268225 99.15137023 165.90652466 112.01345825 C172.97967053 126.46899136 180.02893767 140.93585135 187.04296875 155.42016602 C187.36515381 156.08466766 187.68733887 156.74916931 188.01928711 157.43380737 C188.63972906 158.71411969 189.25906999 159.99496627 189.87719727 161.27639771 C191.29672654 164.20941864 192.74972953 167.11693413 194.2578125 170.00561523 C194.80050781 171.0460498 195.34320313 172.08648437 195.90234375 173.15844727 C196.37994141 174.05168701 196.85753906 174.94492676 197.34960938 175.86523438 C199.26908801 180.49593571 199.97679397 184.06717122 198.48657227 188.91552734 C197.95475342 190.04498779 197.42293457 191.17444824 196.875 192.33813477 C196.58439194 192.96773605 196.29378387 193.59733734 195.99436951 194.24601746 C195.0321082 196.31995638 194.04559411 198.38133832 193.05859375 200.44360352 C192.37150116 201.91228242 191.68598292 203.38169876 191.00195312 204.85180664 C189.20924352 208.69354955 187.39596752 212.52518992 185.57647705 216.35430908 C183.86217375 219.96702338 182.16182735 223.58627857 180.4609375 227.20532227 C178.47922919 231.42013215 176.49565469 235.63400689 174.50268555 239.84350586 C171.06565497 247.11066141 167.67478789 254.3956388 164.36328125 261.72094727 C164.02596985 262.46680084 163.68865845 263.21265442 163.34112549 263.98110962 C161.73459656 267.5377157 160.13453326 271.09707388 158.54296875 274.66040039 C148.74580122 296.5096391 148.74580122 296.5096391 143.49609375 299.63110352 C136.81548233 300.37339367 136.81548233 300.37339367 133.09375 298.27954102 C129.23685051 294.34724349 127.22816246 289.75707321 124.87109375 284.81860352 C124.41347656 283.88467773 123.95585937 282.95075195 123.484375 281.98852539 C120.96893037 276.83354087 118.50648778 271.65324266 116.03662109 266.47631836 C110.02862922 253.88756417 103.95450878 241.33390511 97.80914307 228.81164551 C95.30112921 223.70066645 92.79710769 218.58773194 90.29296875 213.47485352 C89.54643539 211.95078888 89.54643539 211.95078888 88.78482056 210.39593506 C83.79056839 200.19667755 78.82364221 189.98427446 73.86782837 179.76629639 C68.74493229 169.20384738 63.61770336 158.64350972 58.48828125 148.08422852 C57.70629468 146.47436725 56.92431224 144.86450397 56.14233398 143.25463867 C54.26030121 139.38010397 52.37821359 135.50559592 50.49609375 131.63110352 C44.55559211 143.48873381 38.61737317 155.34750433 32.68191051 167.20765781 C29.92451801 172.71726779 27.16639785 178.22651074 24.40649414 183.73486328 C21.73327761 189.07027306 19.06212986 194.40671419 16.39229774 199.74381828 C15.38336167 201.75987062 14.37373298 203.77557653 13.36333275 205.79089546 C8.19431573 216.10205055 3.08675251 226.43560148 -1.86401367 236.85351562 C-7.79743584 249.33170294 -13.97364938 261.6845197 -20.17080879 274.03337097 C-21.76224856 277.20601285 -23.35091443 280.38004316 -24.93981934 283.55395508 C-29.29781102 292.25807161 -33.65988085 300.96014258 -38.02204132 309.66217041 C-42.03087076 317.65945076 -46.03875282 325.65720257 -50.04336214 333.65659714 C-51.61115685 336.78809777 -53.1797665 339.91918369 -54.75053406 343.04919434 C-61.05576381 355.61578 -67.29050023 368.20614106 -73.32334232 380.90586853 C-78.86141755 392.53373939 -84.63683034 404.04348562 -90.40132976 415.56027603 C-92.01418089 418.78338896 -93.62502802 422.00750343 -95.23622131 425.23144531 C-97.92989406 430.62058972 -100.62521607 436.00890672 -103.3215332 441.39672852 C-106.42844369 447.60506783 -109.53242334 453.81486603 -112.63495344 460.02539539 C-115.32248648 465.40500668 -118.01158448 470.78383354 -120.7019816 476.16201305 C-122.29902766 479.35455566 -123.89554982 482.54735713 -125.49064445 485.74087524 C-127.26091793 489.28486178 -129.03447373 492.82719986 -130.80834961 496.36938477 C-131.32838058 497.41147095 -131.84841156 498.45355713 -132.38420105 499.52722168 C-139.68402317 514.0845148 -139.68402317 514.0845148 -143.50390625 516.63110352 C-145.55858326 516.89116573 -145.55858326 516.89116573 -147.96235657 516.90525818 C-148.87495239 516.91523331 -149.78754822 516.92520844 -150.72779846 516.93548584 C-151.72681686 516.93615051 -152.72583527 516.93681519 -153.75512695 516.9375 C-154.80906647 516.94582352 -155.86300598 516.95414703 -156.94888306 516.96272278 C-160.44252183 516.98687188 -163.93597404 516.99560123 -167.4296875 517.00219727 C-169.85483355 517.01116026 -172.27997902 517.02028204 -174.7051239 517.02955627 C-179.79358261 517.04606247 -184.8819754 517.0537493 -189.97045898 517.05664062 C-196.49092043 517.06202423 -203.0107623 517.09969736 -209.53104877 517.14538479 C-214.54192873 517.17512783 -219.55265905 517.18236361 -224.56361961 517.18336678 C-226.96739729 517.18757496 -229.37117518 517.20003305 -231.7748661 517.22088432 C-235.13854112 517.24773838 -238.50077449 517.24298978 -241.86450195 517.23046875 C-243.35392052 517.25272018 -243.35392052 517.25272018 -244.87342834 517.27542114 C-249.37422126 517.22771051 -252.52307545 517.1092231 -256.11618042 514.22750854 C-259.35295052 510.70785563 -259.35295052 510.70785563 -259.3359375 507.26782227 C-258.84731245 499.64555305 -254.71575805 493.04569286 -251.19140625 486.44360352 C-249.81370554 483.80770159 -248.44659968 481.16633548 -247.078125 478.52563477 C-246.71857224 477.83648987 -246.35901947 477.14734497 -245.98857117 476.43731689 C-242.43981396 469.60030502 -239.13236762 462.65418795 -235.82675171 455.69718933 C-230.93998041 445.41866741 -225.92736005 435.20341582 -220.90615845 424.99005127 C-218.15458055 419.39266372 -215.4071963 413.79321921 -212.66015625 408.19360352 C-212.12107132 407.09476837 -211.58198639 405.99593323 -211.02656555 404.86380005 C-206.76508788 396.17315041 -202.53015409 387.46997855 -198.31640625 378.75610352 C-192.14191776 365.98948494 -185.92374135 353.24458148 -179.69140625 340.50610352 C-172.72239956 326.26128606 -165.75973464 312.01345728 -158.81640625 297.75610352 C-158.42912354 296.96091309 -158.04184082 296.16572266 -157.64282227 295.34643555 C-154.92938902 289.77488275 -152.21656409 284.20303387 -149.50390625 278.63110352 C-146.40017577 272.25589105 -143.2961205 265.88083696 -140.19140625 259.50610352 C-139.804758 258.71218201 -139.41810974 257.9182605 -139.01974487 257.10028076 C-132.48671021 243.68707564 -125.93490344 230.28309731 -119.37890625 216.88110352 C-112.51700988 202.85372771 -105.67110452 188.81883225 -98.8543396 174.76947021 C-90.61301296 157.78453329 -82.33279681 140.81862373 -74.05224609 123.8527832 C-71.53157412 118.68806235 -69.01174107 113.52293255 -66.4921875 108.35766602 C-66.08020111 107.51306824 -65.66821472 106.66847046 -65.2437439 105.79827881 C-63.58237423 102.39231455 -61.92104279 98.98633165 -60.25976562 95.58032227 C-56.04972875 86.9487553 -51.83939422 78.31733537 -47.62580872 69.6875 C-46.33239721 67.0382915 -45.0393544 64.38890326 -43.74633789 61.73950195 C-42.06091049 58.28625116 -40.37371526 54.83387221 -38.68530273 51.38208008 C-34.77815521 43.38818715 -30.89892404 35.38317325 -27.08984375 27.34204102 C-26.06941608 25.19732218 -25.04838058 23.05289359 -24.0272522 20.9085083 C-23.0964442 18.9444842 -22.17728506 16.97530562 -21.25854492 15.00561523 C-20.70142822 13.83530762 -20.14431152 12.665 -19.5703125 11.45922852 C-19.09537354 10.44763672 -18.62043457 9.43604492 -18.13110352 8.39379883 C-13.30041179 0.19213228 -8.93694595 -0.09531757 0 0 Z " fill="#275C3A" transform="translate(258.50390625,-0.631103515625)"/>
</svg>
